# xmcd
#
# Track frame offsets: 
#        150
#        11920
#        28840
#        48655
#        70347
#        87792
#        108885
#        124445
#        144475
#        161012
#        178105
#        193225
#
# Disc length: 2785 seconds
#
# Revision: 8
# Processed by: cddbd v1.5.2PL0 Copyright (c) Steve Scherf et al.
# Submitted via: ExactAudioCopy v0.95a5
#
DISCID=b00adf0c
DTITLE=Lisa Ono - Essencia
DYEAR=1997
DGENRE=Bossa Nova
TTITLE0=RED BLOUSE
TTITLE1=Essencia
TTITLE2=BEIJO PARTIDO
TTITLE3=ACROSS THE UNIVERSE
TTITLE4=TERAVESSIA
TTITLE5=WAITING FOR ANGELA
TTITLE6=NON-STOP TO BRAZIL
TTITLE7=SMILE
TTITLE8=ME LEVA
TTITLE9=AFTERNOONS IN THAILAND
TTITLE10=ME NINA
TTITLE11=SHI-A-WA-SE
EXTD=YEAR: 1997
EXTT0=
EXTT1=
EXTT2=
EXTT3=
EXTT4=
EXTT5=
EXTT6=
EXTT7=
EXTT8=
EXTT9=
EXTT10=
EXTT11=
PLAYORDER=
